<?xml version="1.0" encoding="utf-8"?>
<svg version="1.1" xmlns:xlink="http://www.w3.org/1999/xlink" width="30px" height="37px" xmlns="http://www.w3.org/2000/svg">
  <defs>
    <filter x="1055px" y="654px" width="30px" height="37px" filterUnits="userSpaceOnUse" id="filter13">
      <feOffset dx="1" dy="1" in="SourceAlpha" result="shadowOffsetInner" />
      <feGaussianBlur stdDeviation="2.5" in="shadowOffsetInner" result="shadowGaussian" />
      <feComposite in2="shadowGaussian" operator="atop" in="SourceAlpha" result="shadowComposite" />
      <feColorMatrix type="matrix" values="0 0 0 0 0  0 0 0 0 0  0 0 0 0 0  0 0 0 0.6980392156862745 0  " in="shadowComposite" />
    </filter>
    <g id="widget14">
      <path d="M 1069 684.0287944182552  C 1065.2 677.6523350266186  1059.5 673.8264593916366  1059.5 667.45  C 1059.5 664.1257142857143  1061.4 658.5  1069 658.5  C 1076.6 658.5  1078.5 664.1257142857143  1078.5 667.45  C 1078.5 673.8264593916366  1072.8 677.6523350266186  1069 684.0287944182552  Z " fill-rule="nonzero" fill="#d9001b" stroke="none" />
      <path d="M 1069 685  C 1065 678.25  1059 674.2  1059 667.45  C 1059 663.94  1061 658  1069 658  C 1077 658  1079 663.94  1079 667.45  C 1079 674.2  1073 678.25  1069 685  Z M 1069 683.0575888365105  C 1072.6 677.0546700532373  1078 673.4529187832733  1078 667.45  C 1078 664.3114285714286  1076.2 659  1069 659  C 1061.8 659  1060 664.3114285714286  1060 667.45  C 1060 673.4529187832733  1065.4 677.0546700532373  1069 683.0575888365105  Z " fill-rule="nonzero" fill="#ffffff" stroke="none" />
    </g>
  </defs>
  <g transform="matrix(1 0 0 1 -1055 -654 )">
    <use xlink:href="#widget14" filter="url(#filter13)" />
    <use xlink:href="#widget14" />
  </g>
</svg>